M48
;DRILL file {PCBnew (20090216-final)} date Wed 03 Nov 2010 02:55:08 PM ART
;FORMAT={-.-/ absolute / inch / decimal}
R,T
VER,1
FMAT,2
INCH,TZ
TCST,OFF
ICI,OFF
ATC,ON
T1C0.032
%
M47
G05
M72
T1
X5.420Y2.380
X5.420Y2.480
X5.420Y2.580
X5.420Y2.680
X5.420Y2.780
X5.420Y2.880
X5.420Y2.980
X5.420Y3.080
X5.420Y3.180
X5.420Y3.280
X5.420Y3.380
X5.420Y3.480
X5.420Y3.580
X5.420Y3.680
X6.320Y2.380
X6.320Y2.480
X6.320Y2.580
X6.320Y2.680
X6.320Y2.780
X6.320Y2.880
X6.320Y2.980
X6.320Y3.080
X6.320Y3.180
X6.320Y3.280
X6.320Y3.380
X6.320Y3.480
X6.320Y3.580
X6.320Y3.680
T0
M30
