G04 (created by PCBnew (20090216-final)) date Wed 03 Nov 2010 02:54:57 PM ART*
G01*
G70*
G90*
%MOIN*%
G04 Gerber Fmt 3.4, Leading zero omitted, Abs format*
%FSLAX34Y34*%
G04 APERTURE LIST*
%ADD10C,0.012000*%
%ADD11R,0.055000X0.055000*%
%ADD12C,0.055000*%
%ADD13R,0.050000X0.016000*%
%ADD14C,0.011800*%
%ADD15C,0.010000*%
G04 APERTURE END LIST*
G54D10*
X57294Y-26212D02*
X57361Y-26300D01*
X57361Y-26300D02*
X57694Y-26300D01*
X57694Y-26300D02*
X57761Y-26212D01*
X57761Y-26212D02*
X57761Y-25945D01*
X57761Y-25945D02*
X57694Y-25856D01*
X57694Y-25856D02*
X57361Y-25856D01*
X57361Y-25856D02*
X57294Y-25767D01*
X57294Y-25767D02*
X57294Y-25589D01*
X57294Y-25589D02*
X57361Y-25500D01*
X57361Y-25500D02*
X57694Y-25500D01*
X57694Y-25500D02*
X57761Y-25589D01*
X58080Y-26212D02*
X58147Y-26300D01*
X58147Y-26300D02*
X58480Y-26300D01*
X58480Y-26300D02*
X58547Y-26212D01*
X58547Y-26212D02*
X58547Y-25945D01*
X58547Y-25945D02*
X58480Y-25856D01*
X58480Y-25856D02*
X58147Y-25856D01*
X58147Y-25856D02*
X58080Y-25767D01*
X58080Y-25767D02*
X58080Y-25589D01*
X58080Y-25589D02*
X58147Y-25500D01*
X58147Y-25500D02*
X58480Y-25500D01*
X58480Y-25500D02*
X58547Y-25589D01*
X58933Y-26300D02*
X58866Y-26212D01*
X58866Y-26212D02*
X58866Y-25589D01*
X58866Y-25589D02*
X58933Y-25500D01*
X58933Y-25500D02*
X59266Y-25500D01*
X59266Y-25500D02*
X59333Y-25589D01*
X59333Y-25589D02*
X59333Y-26212D01*
X59333Y-26212D02*
X59266Y-26300D01*
X59266Y-26300D02*
X58933Y-26300D01*
X59652Y-26300D02*
X59652Y-25500D01*
X59652Y-25500D02*
X60052Y-25500D01*
X60052Y-25500D02*
X60119Y-25589D01*
X60119Y-25589D02*
X60119Y-25856D01*
X60119Y-25856D02*
X60052Y-25945D01*
X60052Y-25945D02*
X59652Y-25945D01*
G54D11*
X63200Y-23800D03*
G54D12*
X63200Y-24800D03*
X63200Y-25800D03*
X63200Y-26800D03*
X63200Y-27800D03*
X63200Y-28800D03*
X63200Y-29800D03*
X63200Y-30800D03*
X63200Y-31800D03*
X63200Y-32800D03*
X63200Y-33800D03*
X63200Y-34800D03*
X63200Y-35800D03*
X63200Y-36800D03*
G54D11*
X54200Y-23800D03*
G54D12*
X54200Y-24800D03*
X54200Y-25800D03*
X54200Y-26800D03*
X54200Y-27800D03*
X54200Y-28800D03*
X54200Y-29800D03*
X54200Y-30800D03*
X54200Y-31800D03*
X54200Y-32800D03*
X54200Y-33800D03*
X54200Y-34800D03*
X54200Y-35800D03*
X54200Y-36800D03*
G54D13*
X57300Y-28650D03*
X57300Y-28900D03*
X57300Y-29160D03*
X57300Y-29420D03*
X57300Y-29670D03*
X57300Y-29930D03*
X57300Y-30190D03*
X57300Y-30440D03*
X57300Y-30700D03*
X57300Y-30950D03*
X57300Y-31210D03*
X57300Y-31470D03*
X57300Y-31720D03*
X57300Y-31980D03*
X60100Y-31980D03*
X60100Y-31720D03*
X60100Y-31480D03*
X60100Y-31210D03*
X60100Y-30950D03*
X60100Y-30700D03*
X60100Y-30440D03*
X60100Y-30190D03*
X60100Y-29930D03*
X60100Y-29670D03*
X60100Y-29420D03*
X60100Y-29160D03*
X60100Y-28900D03*
X60100Y-28650D03*
G54D14*
X61200Y-28500D02*
X61200Y-25800D01*
X61100Y-28600D02*
X61200Y-28500D01*
X61050Y-28650D02*
X61100Y-28600D01*
X60100Y-28650D02*
X61050Y-28650D01*
X61200Y-25800D02*
X63200Y-23800D01*
X61500Y-28700D02*
X61500Y-26500D01*
X61300Y-28900D02*
X61500Y-28700D01*
X60100Y-28900D02*
X61300Y-28900D01*
X61500Y-26500D02*
X63200Y-24800D01*
X61800Y-29000D02*
X61800Y-27200D01*
X61640Y-29160D02*
X61800Y-29000D01*
X60100Y-29160D02*
X61640Y-29160D01*
X61800Y-27200D02*
X63200Y-25800D01*
X62100Y-29300D02*
X62100Y-27900D01*
X61980Y-29420D02*
X62100Y-29300D01*
X60100Y-29420D02*
X61980Y-29420D01*
X62100Y-27900D02*
X63200Y-26800D01*
X62400Y-29600D02*
X62400Y-28600D01*
X62330Y-29670D02*
X62400Y-29600D01*
X60100Y-29670D02*
X62330Y-29670D01*
X62400Y-28600D02*
X63200Y-27800D01*
X62700Y-29800D02*
X62700Y-29300D01*
X62570Y-29930D02*
X62700Y-29800D01*
X60100Y-29930D02*
X62570Y-29930D01*
X62700Y-29300D02*
X63200Y-28800D01*
X60100Y-30190D02*
X62810Y-30190D01*
X62810Y-30190D02*
X63200Y-29800D01*
X60100Y-30440D02*
X62840Y-30440D01*
X62840Y-30440D02*
X63200Y-30800D01*
X62700Y-30800D02*
X62700Y-31300D01*
X62600Y-30700D02*
X62700Y-30800D01*
X60100Y-30700D02*
X62400Y-30700D01*
X62400Y-30700D02*
X62600Y-30700D01*
X62700Y-31300D02*
X63200Y-31800D01*
X62400Y-31100D02*
X62400Y-32000D01*
X62250Y-30950D02*
X62400Y-31100D01*
X60100Y-30950D02*
X62250Y-30950D01*
X62400Y-32000D02*
X63200Y-32800D01*
X62100Y-31300D02*
X62100Y-32700D01*
X62010Y-31210D02*
X62100Y-31300D01*
X60100Y-31210D02*
X62010Y-31210D01*
X62100Y-32700D02*
X63200Y-33800D01*
X61800Y-31600D02*
X61800Y-33400D01*
X61680Y-31480D02*
X61800Y-31600D01*
X60100Y-31480D02*
X61680Y-31480D01*
X61800Y-33400D02*
X63200Y-34800D01*
X61500Y-31800D02*
X61500Y-34100D01*
X61420Y-31720D02*
X61500Y-31800D01*
X60100Y-31720D02*
X61420Y-31720D01*
X61500Y-34100D02*
X63200Y-35800D01*
X61200Y-32100D02*
X61200Y-34800D01*
X61080Y-31980D02*
X61200Y-32100D01*
X60100Y-31980D02*
X61080Y-31980D01*
X61200Y-34800D02*
X63200Y-36800D01*
X56200Y-28500D02*
X56200Y-25800D01*
X56350Y-28650D02*
X56200Y-28500D01*
X57300Y-28650D02*
X56350Y-28650D01*
X56200Y-25800D02*
X54200Y-23800D01*
X55900Y-28700D02*
X55900Y-26500D01*
X56100Y-28900D02*
X55900Y-28700D01*
X57300Y-28900D02*
X56100Y-28900D01*
X55900Y-26500D02*
X54200Y-24800D01*
X55600Y-29000D02*
X55600Y-27200D01*
X55650Y-29050D02*
X55600Y-29000D01*
X55760Y-29160D02*
X55650Y-29050D01*
X57300Y-29160D02*
X55760Y-29160D01*
X55600Y-27200D02*
X54200Y-25800D01*
X55300Y-29300D02*
X55300Y-27900D01*
X55420Y-29420D02*
X55300Y-29300D01*
X57300Y-29420D02*
X55420Y-29420D01*
X55300Y-27900D02*
X54200Y-26800D01*
X55000Y-29600D02*
X55000Y-28600D01*
X55070Y-29670D02*
X55000Y-29600D01*
X57300Y-29670D02*
X55070Y-29670D01*
X55000Y-28600D02*
X54200Y-27800D01*
X54700Y-29800D02*
X54700Y-29300D01*
X54830Y-29930D02*
X54700Y-29800D01*
X57300Y-29930D02*
X54830Y-29930D01*
X54700Y-29300D02*
X54200Y-28800D01*
X57300Y-30190D02*
X54590Y-30190D01*
X54590Y-30190D02*
X54200Y-29800D01*
X57300Y-30440D02*
X54560Y-30440D01*
X54560Y-30440D02*
X54200Y-30800D01*
X54700Y-30800D02*
X54700Y-31300D01*
X54800Y-30700D02*
X54700Y-30800D01*
X57300Y-30700D02*
X54800Y-30700D01*
X54700Y-31300D02*
X54200Y-31800D01*
X55000Y-31100D02*
X55000Y-32000D01*
X55150Y-30950D02*
X55000Y-31100D01*
X57300Y-30950D02*
X55150Y-30950D01*
X55000Y-32000D02*
X54200Y-32800D01*
X55300Y-31300D02*
X55300Y-32700D01*
X55390Y-31210D02*
X55300Y-31300D01*
X57300Y-31210D02*
X55390Y-31210D01*
X55300Y-32700D02*
X54200Y-33800D01*
X55600Y-31600D02*
X55600Y-33400D01*
X55730Y-31470D02*
X55600Y-31600D01*
X57300Y-31470D02*
X55730Y-31470D01*
X55600Y-33400D02*
X54200Y-34800D01*
X55900Y-31800D02*
X55900Y-34100D01*
X55980Y-31720D02*
X55900Y-31800D01*
X57300Y-31720D02*
X55980Y-31720D01*
X55900Y-34100D02*
X54200Y-35800D01*
X56200Y-32100D02*
X56200Y-34800D01*
X56320Y-31980D02*
X56200Y-32100D01*
X57300Y-31980D02*
X56320Y-31980D01*
X56200Y-34800D02*
X54200Y-36800D01*
G54D15*
X55878Y-26041D02*
X55891Y-26041D01*
X55798Y-25961D02*
X55891Y-25961D01*
X55718Y-25881D02*
X55845Y-25881D01*
X55638Y-25801D02*
X55765Y-25801D01*
X55558Y-25721D02*
X55685Y-25721D01*
X55478Y-25641D02*
X55605Y-25641D01*
X55398Y-25561D02*
X55525Y-25561D01*
X55318Y-25481D02*
X55445Y-25481D01*
X55238Y-25401D02*
X55365Y-25401D01*
X55158Y-25321D02*
X55285Y-25321D01*
X55078Y-25241D02*
X55205Y-25241D01*
X54998Y-25161D02*
X55125Y-25161D01*
X54918Y-25081D02*
X55045Y-25081D01*
X54838Y-25001D02*
X54965Y-25001D01*
X54758Y-24921D02*
X54885Y-24921D01*
X54725Y-24841D02*
X54805Y-24841D01*
X54725Y-24761D02*
X54725Y-24761D01*
X61509Y-26041D02*
X61522Y-26041D01*
X61509Y-25961D02*
X61602Y-25961D01*
X61555Y-25881D02*
X61682Y-25881D01*
X61635Y-25801D02*
X61762Y-25801D01*
X61715Y-25721D02*
X61842Y-25721D01*
X61795Y-25641D02*
X61922Y-25641D01*
X61875Y-25561D02*
X62002Y-25561D01*
X61955Y-25481D02*
X62082Y-25481D01*
X62035Y-25401D02*
X62162Y-25401D01*
X62115Y-25321D02*
X62242Y-25321D01*
X62195Y-25241D02*
X62322Y-25241D01*
X62275Y-25161D02*
X62402Y-25161D01*
X62355Y-25081D02*
X62482Y-25081D01*
X62435Y-25001D02*
X62562Y-25001D01*
X62515Y-24921D02*
X62642Y-24921D01*
X62595Y-24841D02*
X62675Y-24841D01*
X62675Y-24761D02*
X62675Y-24761D01*
X55558Y-26721D02*
X55591Y-26721D01*
X55478Y-26641D02*
X55591Y-26641D01*
X55398Y-26561D02*
X55525Y-26561D01*
X55318Y-26481D02*
X55445Y-26481D01*
X55238Y-26401D02*
X55365Y-26401D01*
X55158Y-26321D02*
X55285Y-26321D01*
X55078Y-26241D02*
X55205Y-26241D01*
X54998Y-26161D02*
X55125Y-26161D01*
X54918Y-26081D02*
X55045Y-26081D01*
X54838Y-26001D02*
X54965Y-26001D01*
X54758Y-25921D02*
X54885Y-25921D01*
X54725Y-25841D02*
X54805Y-25841D01*
X54725Y-25761D02*
X54725Y-25761D01*
X61809Y-26721D02*
X61842Y-26721D01*
X61809Y-26641D02*
X61922Y-26641D01*
X61875Y-26561D02*
X62002Y-26561D01*
X61955Y-26481D02*
X62082Y-26481D01*
X62035Y-26401D02*
X62162Y-26401D01*
X62115Y-26321D02*
X62242Y-26321D01*
X62195Y-26241D02*
X62322Y-26241D01*
X62275Y-26161D02*
X62402Y-26161D01*
X62355Y-26081D02*
X62482Y-26081D01*
X62435Y-26001D02*
X62562Y-26001D01*
X62515Y-25921D02*
X62642Y-25921D01*
X62595Y-25841D02*
X62675Y-25841D01*
X62675Y-25761D02*
X62675Y-25761D01*
X55238Y-27401D02*
X55291Y-27401D01*
X55158Y-27321D02*
X55285Y-27321D01*
X55078Y-27241D02*
X55205Y-27241D01*
X54998Y-27161D02*
X55125Y-27161D01*
X54918Y-27081D02*
X55045Y-27081D01*
X54838Y-27001D02*
X54965Y-27001D01*
X54758Y-26921D02*
X54885Y-26921D01*
X54725Y-26841D02*
X54805Y-26841D01*
X54725Y-26761D02*
X54725Y-26761D01*
X62109Y-27401D02*
X62162Y-27401D01*
X62115Y-27321D02*
X62242Y-27321D01*
X62195Y-27241D02*
X62322Y-27241D01*
X62275Y-27161D02*
X62402Y-27161D01*
X62355Y-27081D02*
X62482Y-27081D01*
X62435Y-27001D02*
X62562Y-27001D01*
X62515Y-26921D02*
X62642Y-26921D01*
X62595Y-26841D02*
X62675Y-26841D01*
X62675Y-26761D02*
X62675Y-26761D01*
X54918Y-28081D02*
X54991Y-28081D01*
X54838Y-28001D02*
X54965Y-28001D01*
X54758Y-27921D02*
X54885Y-27921D01*
X54725Y-27841D02*
X54805Y-27841D01*
X54725Y-27761D02*
X54725Y-27761D01*
X62409Y-28081D02*
X62482Y-28081D01*
X62435Y-28001D02*
X62562Y-28001D01*
X62515Y-27921D02*
X62642Y-27921D01*
X62595Y-27841D02*
X62675Y-27841D01*
X62675Y-27761D02*
X62675Y-27761D01*
X54725Y-32765D02*
X54798Y-32765D01*
X54751Y-32685D02*
X54878Y-32685D01*
X54831Y-32605D02*
X54958Y-32605D01*
X54911Y-32525D02*
X54991Y-32525D01*
X54991Y-32445D02*
X54991Y-32445D01*
X62602Y-32765D02*
X62675Y-32765D01*
X62522Y-32685D02*
X62649Y-32685D01*
X62442Y-32605D02*
X62569Y-32605D01*
X62409Y-32525D02*
X62489Y-32525D01*
X62409Y-32445D02*
X62409Y-32445D01*
X54725Y-33785D02*
X54778Y-33785D01*
X54731Y-33705D02*
X54858Y-33705D01*
X54811Y-33625D02*
X54938Y-33625D01*
X54891Y-33545D02*
X55018Y-33545D01*
X54971Y-33465D02*
X55098Y-33465D01*
X55051Y-33385D02*
X55178Y-33385D01*
X55131Y-33305D02*
X55258Y-33305D01*
X55211Y-33225D02*
X55291Y-33225D01*
X55291Y-33145D02*
X55291Y-33145D01*
X62622Y-33785D02*
X62675Y-33785D01*
X62542Y-33705D02*
X62669Y-33705D01*
X62462Y-33625D02*
X62589Y-33625D01*
X62382Y-33545D02*
X62509Y-33545D01*
X62302Y-33465D02*
X62429Y-33465D01*
X62222Y-33385D02*
X62349Y-33385D01*
X62142Y-33305D02*
X62269Y-33305D01*
X62109Y-33225D02*
X62189Y-33225D01*
X62109Y-33145D02*
X62109Y-33145D01*
X62642Y-34805D02*
X62675Y-34805D01*
X62562Y-34725D02*
X62675Y-34725D01*
X62482Y-34645D02*
X62609Y-34645D01*
X62402Y-34565D02*
X62529Y-34565D01*
X62322Y-34485D02*
X62449Y-34485D01*
X62242Y-34405D02*
X62369Y-34405D01*
X62162Y-34325D02*
X62289Y-34325D01*
X62082Y-34245D02*
X62209Y-34245D01*
X62002Y-34165D02*
X62129Y-34165D01*
X61922Y-34085D02*
X62049Y-34085D01*
X61842Y-34005D02*
X61969Y-34005D01*
X61809Y-33925D02*
X61889Y-33925D01*
X61809Y-33845D02*
X61809Y-33845D01*
X54725Y-34805D02*
X54758Y-34805D01*
X54725Y-34725D02*
X54838Y-34725D01*
X54791Y-34645D02*
X54918Y-34645D01*
X54871Y-34565D02*
X54998Y-34565D01*
X54951Y-34485D02*
X55078Y-34485D01*
X55031Y-34405D02*
X55158Y-34405D01*
X55111Y-34325D02*
X55238Y-34325D01*
X55191Y-34245D02*
X55318Y-34245D01*
X55271Y-34165D02*
X55398Y-34165D01*
X55351Y-34085D02*
X55478Y-34085D01*
X55431Y-34005D02*
X55558Y-34005D01*
X55511Y-33925D02*
X55591Y-33925D01*
X55591Y-33845D02*
X55591Y-33845D01*
X62662Y-35825D02*
X62675Y-35825D01*
X62582Y-35745D02*
X62675Y-35745D01*
X62502Y-35665D02*
X62629Y-35665D01*
X62422Y-35585D02*
X62549Y-35585D01*
X62342Y-35505D02*
X62469Y-35505D01*
X62262Y-35425D02*
X62389Y-35425D01*
X62182Y-35345D02*
X62309Y-35345D01*
X62102Y-35265D02*
X62229Y-35265D01*
X62022Y-35185D02*
X62149Y-35185D01*
X61942Y-35105D02*
X62069Y-35105D01*
X61862Y-35025D02*
X61989Y-35025D01*
X61782Y-34945D02*
X61909Y-34945D01*
X61702Y-34865D02*
X61829Y-34865D01*
X61622Y-34785D02*
X61749Y-34785D01*
X61542Y-34705D02*
X61669Y-34705D01*
X61509Y-34625D02*
X61589Y-34625D01*
X61509Y-34545D02*
X61509Y-34545D01*
X54725Y-35825D02*
X54738Y-35825D01*
X54725Y-35745D02*
X54818Y-35745D01*
X54771Y-35665D02*
X54898Y-35665D01*
X54851Y-35585D02*
X54978Y-35585D01*
X54931Y-35505D02*
X55058Y-35505D01*
X55011Y-35425D02*
X55138Y-35425D01*
X55091Y-35345D02*
X55218Y-35345D01*
X55171Y-35265D02*
X55298Y-35265D01*
X55251Y-35185D02*
X55378Y-35185D01*
X55331Y-35105D02*
X55458Y-35105D01*
X55411Y-35025D02*
X55538Y-35025D01*
X55491Y-34945D02*
X55618Y-34945D01*
X55571Y-34865D02*
X55698Y-34865D01*
X55651Y-34785D02*
X55778Y-34785D01*
X55731Y-34705D02*
X55858Y-34705D01*
X55811Y-34625D02*
X55891Y-34625D01*
X55891Y-34545D02*
X55891Y-34545D01*
X53550Y-37330D02*
X63850Y-37330D01*
X63484Y-37250D02*
X63850Y-37250D01*
X54484Y-37250D02*
X62914Y-37250D01*
X53550Y-37250D02*
X53914Y-37250D01*
X63572Y-37170D02*
X63850Y-37170D01*
X54572Y-37170D02*
X62827Y-37170D01*
X53550Y-37170D02*
X53827Y-37170D01*
X63648Y-37090D02*
X63850Y-37090D01*
X54648Y-37090D02*
X62752Y-37090D01*
X53550Y-37090D02*
X53752Y-37090D01*
X63681Y-37010D02*
X63850Y-37010D01*
X54681Y-37010D02*
X62718Y-37010D01*
X53550Y-37010D02*
X53718Y-37010D01*
X63714Y-36930D02*
X63850Y-36930D01*
X54714Y-36930D02*
X62685Y-36930D01*
X53550Y-36930D02*
X53685Y-36930D01*
X63725Y-36850D02*
X63850Y-36850D01*
X54725Y-36850D02*
X62675Y-36850D01*
X53550Y-36850D02*
X53675Y-36850D01*
X63725Y-36770D02*
X63850Y-36770D01*
X54725Y-36770D02*
X62675Y-36770D01*
X53550Y-36770D02*
X53675Y-36770D01*
X63723Y-36690D02*
X63850Y-36690D01*
X54746Y-36690D02*
X62654Y-36690D01*
X53550Y-36690D02*
X53678Y-36690D01*
X63690Y-36610D02*
X63850Y-36610D01*
X54826Y-36610D02*
X62574Y-36610D01*
X53550Y-36610D02*
X53711Y-36610D01*
X63657Y-36530D02*
X63850Y-36530D01*
X54906Y-36530D02*
X62494Y-36530D01*
X53550Y-36530D02*
X53744Y-36530D01*
X63593Y-36450D02*
X63850Y-36450D01*
X54986Y-36450D02*
X62414Y-36450D01*
X53550Y-36450D02*
X53808Y-36450D01*
X63513Y-36370D02*
X63850Y-36370D01*
X55066Y-36370D02*
X62334Y-36370D01*
X53550Y-36370D02*
X53888Y-36370D01*
X63386Y-36290D02*
X63850Y-36290D01*
X55146Y-36290D02*
X62254Y-36290D01*
X53550Y-36290D02*
X54010Y-36290D01*
X63532Y-36210D02*
X63850Y-36210D01*
X55226Y-36210D02*
X62174Y-36210D01*
X53550Y-36210D02*
X53867Y-36210D01*
X63612Y-36130D02*
X63850Y-36130D01*
X55306Y-36130D02*
X62094Y-36130D01*
X53550Y-36130D02*
X53787Y-36130D01*
X63664Y-36050D02*
X63850Y-36050D01*
X55386Y-36050D02*
X62014Y-36050D01*
X53550Y-36050D02*
X53735Y-36050D01*
X63698Y-35970D02*
X63850Y-35970D01*
X55466Y-35970D02*
X61934Y-35970D01*
X53550Y-35970D02*
X53702Y-35970D01*
X63725Y-35890D02*
X63850Y-35890D01*
X55546Y-35890D02*
X61854Y-35890D01*
X53550Y-35890D02*
X53675Y-35890D01*
X63725Y-35810D02*
X63850Y-35810D01*
X55626Y-35810D02*
X61774Y-35810D01*
X53550Y-35810D02*
X53675Y-35810D01*
X63725Y-35730D02*
X63850Y-35730D01*
X55706Y-35730D02*
X61694Y-35730D01*
X53550Y-35730D02*
X53675Y-35730D01*
X63706Y-35650D02*
X63850Y-35650D01*
X55786Y-35650D02*
X61614Y-35650D01*
X53550Y-35650D02*
X53694Y-35650D01*
X63673Y-35570D02*
X63850Y-35570D01*
X55866Y-35570D02*
X61534Y-35570D01*
X53550Y-35570D02*
X53727Y-35570D01*
X63633Y-35490D02*
X63850Y-35490D01*
X55946Y-35490D02*
X61454Y-35490D01*
X53550Y-35490D02*
X53768Y-35490D01*
X63553Y-35410D02*
X63850Y-35410D01*
X56026Y-35410D02*
X61374Y-35410D01*
X53550Y-35410D02*
X53848Y-35410D01*
X63439Y-35330D02*
X63850Y-35330D01*
X56106Y-35330D02*
X61294Y-35330D01*
X53550Y-35330D02*
X53963Y-35330D01*
X63484Y-35250D02*
X63850Y-35250D01*
X56186Y-35250D02*
X61214Y-35250D01*
X53550Y-35250D02*
X53914Y-35250D01*
X63572Y-35170D02*
X63850Y-35170D01*
X56266Y-35170D02*
X61134Y-35170D01*
X53550Y-35170D02*
X53827Y-35170D01*
X63648Y-35090D02*
X63850Y-35090D01*
X56346Y-35090D02*
X61054Y-35090D01*
X53550Y-35090D02*
X53752Y-35090D01*
X63681Y-35010D02*
X63850Y-35010D01*
X56423Y-35010D02*
X60976Y-35010D01*
X53550Y-35010D02*
X53718Y-35010D01*
X63714Y-34930D02*
X63850Y-34930D01*
X56477Y-34930D02*
X60923Y-34930D01*
X53550Y-34930D02*
X53685Y-34930D01*
X63725Y-34850D02*
X63850Y-34850D01*
X56498Y-34850D02*
X60901Y-34850D01*
X53550Y-34850D02*
X53675Y-34850D01*
X63725Y-34770D02*
X63850Y-34770D01*
X56509Y-34770D02*
X60891Y-34770D01*
X53550Y-34770D02*
X53675Y-34770D01*
X63723Y-34690D02*
X63850Y-34690D01*
X56509Y-34690D02*
X60891Y-34690D01*
X53550Y-34690D02*
X53678Y-34690D01*
X63690Y-34610D02*
X63850Y-34610D01*
X56509Y-34610D02*
X60891Y-34610D01*
X53550Y-34610D02*
X53711Y-34610D01*
X63657Y-34530D02*
X63850Y-34530D01*
X56509Y-34530D02*
X60891Y-34530D01*
X53550Y-34530D02*
X53744Y-34530D01*
X63593Y-34450D02*
X63850Y-34450D01*
X56509Y-34450D02*
X60891Y-34450D01*
X53550Y-34450D02*
X53808Y-34450D01*
X63513Y-34370D02*
X63850Y-34370D01*
X56509Y-34370D02*
X60891Y-34370D01*
X53550Y-34370D02*
X53888Y-34370D01*
X63386Y-34290D02*
X63850Y-34290D01*
X56509Y-34290D02*
X60891Y-34290D01*
X53550Y-34290D02*
X54010Y-34290D01*
X63532Y-34210D02*
X63850Y-34210D01*
X56509Y-34210D02*
X60891Y-34210D01*
X53550Y-34210D02*
X53867Y-34210D01*
X63612Y-34130D02*
X63850Y-34130D01*
X56509Y-34130D02*
X60891Y-34130D01*
X53550Y-34130D02*
X53787Y-34130D01*
X63664Y-34050D02*
X63850Y-34050D01*
X56509Y-34050D02*
X60891Y-34050D01*
X53550Y-34050D02*
X53735Y-34050D01*
X63698Y-33970D02*
X63850Y-33970D01*
X56509Y-33970D02*
X60891Y-33970D01*
X53550Y-33970D02*
X53702Y-33970D01*
X63725Y-33890D02*
X63850Y-33890D01*
X56509Y-33890D02*
X60891Y-33890D01*
X53550Y-33890D02*
X53675Y-33890D01*
X63725Y-33810D02*
X63850Y-33810D01*
X56509Y-33810D02*
X60891Y-33810D01*
X53550Y-33810D02*
X53675Y-33810D01*
X63725Y-33730D02*
X63850Y-33730D01*
X56509Y-33730D02*
X60891Y-33730D01*
X53550Y-33730D02*
X53675Y-33730D01*
X63706Y-33650D02*
X63850Y-33650D01*
X56509Y-33650D02*
X60891Y-33650D01*
X53550Y-33650D02*
X53694Y-33650D01*
X63673Y-33570D02*
X63850Y-33570D01*
X56509Y-33570D02*
X60891Y-33570D01*
X53550Y-33570D02*
X53727Y-33570D01*
X63633Y-33490D02*
X63850Y-33490D01*
X56509Y-33490D02*
X60891Y-33490D01*
X53550Y-33490D02*
X53768Y-33490D01*
X63553Y-33410D02*
X63850Y-33410D01*
X56509Y-33410D02*
X60891Y-33410D01*
X53550Y-33410D02*
X53848Y-33410D01*
X63439Y-33330D02*
X63850Y-33330D01*
X56509Y-33330D02*
X60891Y-33330D01*
X53550Y-33330D02*
X53963Y-33330D01*
X63484Y-33250D02*
X63850Y-33250D01*
X56509Y-33250D02*
X60891Y-33250D01*
X53550Y-33250D02*
X53914Y-33250D01*
X63572Y-33170D02*
X63850Y-33170D01*
X56509Y-33170D02*
X60891Y-33170D01*
X53550Y-33170D02*
X53827Y-33170D01*
X63648Y-33090D02*
X63850Y-33090D01*
X56509Y-33090D02*
X60891Y-33090D01*
X53550Y-33090D02*
X53752Y-33090D01*
X63681Y-33010D02*
X63850Y-33010D01*
X56509Y-33010D02*
X60891Y-33010D01*
X53550Y-33010D02*
X53718Y-33010D01*
X63714Y-32930D02*
X63850Y-32930D01*
X56509Y-32930D02*
X60891Y-32930D01*
X53550Y-32930D02*
X53685Y-32930D01*
X63725Y-32850D02*
X63850Y-32850D01*
X56509Y-32850D02*
X60891Y-32850D01*
X53550Y-32850D02*
X53675Y-32850D01*
X63725Y-32770D02*
X63850Y-32770D01*
X56509Y-32770D02*
X60891Y-32770D01*
X53550Y-32770D02*
X53675Y-32770D01*
X63723Y-32690D02*
X63850Y-32690D01*
X56509Y-32690D02*
X60891Y-32690D01*
X53550Y-32690D02*
X53678Y-32690D01*
X63690Y-32610D02*
X63850Y-32610D01*
X56509Y-32610D02*
X60891Y-32610D01*
X53550Y-32610D02*
X53711Y-32610D01*
X63657Y-32530D02*
X63850Y-32530D01*
X56509Y-32530D02*
X60891Y-32530D01*
X53550Y-32530D02*
X53744Y-32530D01*
X63593Y-32450D02*
X63850Y-32450D01*
X56509Y-32450D02*
X60891Y-32450D01*
X53550Y-32450D02*
X53808Y-32450D01*
X63513Y-32370D02*
X63850Y-32370D01*
X56509Y-32370D02*
X60891Y-32370D01*
X53550Y-32370D02*
X53888Y-32370D01*
X63386Y-32290D02*
X63850Y-32290D01*
X60444Y-32290D02*
X60891Y-32290D01*
X57645Y-32290D02*
X59754Y-32290D01*
X56509Y-32290D02*
X56954Y-32290D01*
X53550Y-32290D02*
X54010Y-32290D01*
X63532Y-32210D02*
X63850Y-32210D01*
X57752Y-32210D02*
X59648Y-32210D01*
X53550Y-32210D02*
X53867Y-32210D01*
X63612Y-32130D02*
X63850Y-32130D01*
X57790Y-32130D02*
X59609Y-32130D01*
X53550Y-32130D02*
X53787Y-32130D01*
X63664Y-32050D02*
X63850Y-32050D01*
X57799Y-32050D02*
X59601Y-32050D01*
X53550Y-32050D02*
X53735Y-32050D01*
X63698Y-31970D02*
X63850Y-31970D01*
X57799Y-31970D02*
X59601Y-31970D01*
X53550Y-31970D02*
X53702Y-31970D01*
X63725Y-31890D02*
X63850Y-31890D01*
X57799Y-31890D02*
X59601Y-31890D01*
X53550Y-31890D02*
X53675Y-31890D01*
X63725Y-31810D02*
X63850Y-31810D01*
X57799Y-31810D02*
X59601Y-31810D01*
X53550Y-31810D02*
X53675Y-31810D01*
X63725Y-31730D02*
X63850Y-31730D01*
X57799Y-31730D02*
X59601Y-31730D01*
X53550Y-31730D02*
X53675Y-31730D01*
X63706Y-31650D02*
X63850Y-31650D01*
X57799Y-31650D02*
X59601Y-31650D01*
X53550Y-31650D02*
X53694Y-31650D01*
X63673Y-31570D02*
X63850Y-31570D01*
X57799Y-31570D02*
X59601Y-31570D01*
X53550Y-31570D02*
X53727Y-31570D01*
X63633Y-31490D02*
X63850Y-31490D01*
X57799Y-31490D02*
X59601Y-31490D01*
X53550Y-31490D02*
X53768Y-31490D01*
X63553Y-31410D02*
X63850Y-31410D01*
X57799Y-31410D02*
X59601Y-31410D01*
X53550Y-31410D02*
X53848Y-31410D01*
X63439Y-31330D02*
X63850Y-31330D01*
X57799Y-31330D02*
X59601Y-31330D01*
X53550Y-31330D02*
X53963Y-31330D01*
X63484Y-31250D02*
X63850Y-31250D01*
X57799Y-31250D02*
X59601Y-31250D01*
X53550Y-31250D02*
X53914Y-31250D01*
X63572Y-31170D02*
X63850Y-31170D01*
X57799Y-31170D02*
X59601Y-31170D01*
X53550Y-31170D02*
X53827Y-31170D01*
X63648Y-31090D02*
X63850Y-31090D01*
X57799Y-31090D02*
X59601Y-31090D01*
X53550Y-31090D02*
X53752Y-31090D01*
X63681Y-31010D02*
X63850Y-31010D01*
X57799Y-31010D02*
X59601Y-31010D01*
X53550Y-31010D02*
X53718Y-31010D01*
X63714Y-30930D02*
X63850Y-30930D01*
X57799Y-30930D02*
X59601Y-30930D01*
X53550Y-30930D02*
X53685Y-30930D01*
X63725Y-30850D02*
X63850Y-30850D01*
X57799Y-30850D02*
X59601Y-30850D01*
X53550Y-30850D02*
X53675Y-30850D01*
X63725Y-30770D02*
X63850Y-30770D01*
X57799Y-30770D02*
X59601Y-30770D01*
X53550Y-30770D02*
X53675Y-30770D01*
X63723Y-30690D02*
X63850Y-30690D01*
X57799Y-30690D02*
X59601Y-30690D01*
X53550Y-30690D02*
X53678Y-30690D01*
X63690Y-30610D02*
X63850Y-30610D01*
X57799Y-30610D02*
X59601Y-30610D01*
X53550Y-30610D02*
X53711Y-30610D01*
X63657Y-30530D02*
X63850Y-30530D01*
X57799Y-30530D02*
X59601Y-30530D01*
X53550Y-30530D02*
X53744Y-30530D01*
X63593Y-30450D02*
X63850Y-30450D01*
X57799Y-30450D02*
X59601Y-30450D01*
X53550Y-30450D02*
X53808Y-30450D01*
X63513Y-30370D02*
X63850Y-30370D01*
X57799Y-30370D02*
X59601Y-30370D01*
X53550Y-30370D02*
X53888Y-30370D01*
X63386Y-30290D02*
X63850Y-30290D01*
X57799Y-30290D02*
X59601Y-30290D01*
X53550Y-30290D02*
X54010Y-30290D01*
X63532Y-30210D02*
X63850Y-30210D01*
X57799Y-30210D02*
X59601Y-30210D01*
X53550Y-30210D02*
X53867Y-30210D01*
X63612Y-30130D02*
X63850Y-30130D01*
X57799Y-30130D02*
X59601Y-30130D01*
X53550Y-30130D02*
X53787Y-30130D01*
X63664Y-30050D02*
X63850Y-30050D01*
X57799Y-30050D02*
X59601Y-30050D01*
X53550Y-30050D02*
X53735Y-30050D01*
X63698Y-29970D02*
X63850Y-29970D01*
X57799Y-29970D02*
X59601Y-29970D01*
X53550Y-29970D02*
X53702Y-29970D01*
X63725Y-29890D02*
X63850Y-29890D01*
X57799Y-29890D02*
X59601Y-29890D01*
X53550Y-29890D02*
X53675Y-29890D01*
X63725Y-29810D02*
X63850Y-29810D01*
X57799Y-29810D02*
X59601Y-29810D01*
X53550Y-29810D02*
X53675Y-29810D01*
X63725Y-29730D02*
X63850Y-29730D01*
X57799Y-29730D02*
X59601Y-29730D01*
X53550Y-29730D02*
X53675Y-29730D01*
X63706Y-29650D02*
X63850Y-29650D01*
X57799Y-29650D02*
X59601Y-29650D01*
X53550Y-29650D02*
X53694Y-29650D01*
X63673Y-29570D02*
X63850Y-29570D01*
X57799Y-29570D02*
X59601Y-29570D01*
X53550Y-29570D02*
X53727Y-29570D01*
X63633Y-29490D02*
X63850Y-29490D01*
X57799Y-29490D02*
X59601Y-29490D01*
X53550Y-29490D02*
X53768Y-29490D01*
X63553Y-29410D02*
X63850Y-29410D01*
X57799Y-29410D02*
X59601Y-29410D01*
X53550Y-29410D02*
X53848Y-29410D01*
X63439Y-29330D02*
X63850Y-29330D01*
X57799Y-29330D02*
X59601Y-29330D01*
X53550Y-29330D02*
X53963Y-29330D01*
X63484Y-29250D02*
X63850Y-29250D01*
X57799Y-29250D02*
X59601Y-29250D01*
X53550Y-29250D02*
X53914Y-29250D01*
X63572Y-29170D02*
X63850Y-29170D01*
X57799Y-29170D02*
X59601Y-29170D01*
X53550Y-29170D02*
X53827Y-29170D01*
X63648Y-29090D02*
X63850Y-29090D01*
X57799Y-29090D02*
X59601Y-29090D01*
X53550Y-29090D02*
X53752Y-29090D01*
X63681Y-29010D02*
X63850Y-29010D01*
X57799Y-29010D02*
X59601Y-29010D01*
X53550Y-29010D02*
X53718Y-29010D01*
X63714Y-28930D02*
X63850Y-28930D01*
X57799Y-28930D02*
X59601Y-28930D01*
X53550Y-28930D02*
X53685Y-28930D01*
X63725Y-28850D02*
X63850Y-28850D01*
X57799Y-28850D02*
X59601Y-28850D01*
X53550Y-28850D02*
X53675Y-28850D01*
X63725Y-28770D02*
X63850Y-28770D01*
X57799Y-28770D02*
X59601Y-28770D01*
X53550Y-28770D02*
X53675Y-28770D01*
X63723Y-28690D02*
X63850Y-28690D01*
X57799Y-28690D02*
X59601Y-28690D01*
X53550Y-28690D02*
X53678Y-28690D01*
X63690Y-28610D02*
X63850Y-28610D01*
X57799Y-28610D02*
X59601Y-28610D01*
X53550Y-28610D02*
X53711Y-28610D01*
X63657Y-28530D02*
X63850Y-28530D01*
X57799Y-28530D02*
X59601Y-28530D01*
X53550Y-28530D02*
X53744Y-28530D01*
X63593Y-28450D02*
X63850Y-28450D01*
X57770Y-28450D02*
X59631Y-28450D01*
X53550Y-28450D02*
X53808Y-28450D01*
X63513Y-28370D02*
X63850Y-28370D01*
X57702Y-28370D02*
X59698Y-28370D01*
X53550Y-28370D02*
X53888Y-28370D01*
X63386Y-28290D02*
X63850Y-28290D01*
X56509Y-28290D02*
X60891Y-28290D01*
X53550Y-28290D02*
X54010Y-28290D01*
X63532Y-28210D02*
X63850Y-28210D01*
X56509Y-28210D02*
X60891Y-28210D01*
X53550Y-28210D02*
X53867Y-28210D01*
X63612Y-28130D02*
X63850Y-28130D01*
X56509Y-28130D02*
X60891Y-28130D01*
X53550Y-28130D02*
X53787Y-28130D01*
X63664Y-28050D02*
X63850Y-28050D01*
X56509Y-28050D02*
X60891Y-28050D01*
X53550Y-28050D02*
X53735Y-28050D01*
X63698Y-27970D02*
X63850Y-27970D01*
X56509Y-27970D02*
X60891Y-27970D01*
X53550Y-27970D02*
X53702Y-27970D01*
X63725Y-27890D02*
X63850Y-27890D01*
X56509Y-27890D02*
X60891Y-27890D01*
X53550Y-27890D02*
X53675Y-27890D01*
X63725Y-27810D02*
X63850Y-27810D01*
X56509Y-27810D02*
X60891Y-27810D01*
X53550Y-27810D02*
X53675Y-27810D01*
X63725Y-27730D02*
X63850Y-27730D01*
X56509Y-27730D02*
X60891Y-27730D01*
X53550Y-27730D02*
X53675Y-27730D01*
X63706Y-27650D02*
X63850Y-27650D01*
X56509Y-27650D02*
X60891Y-27650D01*
X53550Y-27650D02*
X53694Y-27650D01*
X63673Y-27570D02*
X63850Y-27570D01*
X56509Y-27570D02*
X60891Y-27570D01*
X53550Y-27570D02*
X53727Y-27570D01*
X63633Y-27490D02*
X63850Y-27490D01*
X56509Y-27490D02*
X60891Y-27490D01*
X53550Y-27490D02*
X53768Y-27490D01*
X63553Y-27410D02*
X63850Y-27410D01*
X56509Y-27410D02*
X60891Y-27410D01*
X53550Y-27410D02*
X53848Y-27410D01*
X63439Y-27330D02*
X63850Y-27330D01*
X56509Y-27330D02*
X60891Y-27330D01*
X53550Y-27330D02*
X53963Y-27330D01*
X63484Y-27250D02*
X63850Y-27250D01*
X56509Y-27250D02*
X60891Y-27250D01*
X53550Y-27250D02*
X53914Y-27250D01*
X63572Y-27170D02*
X63850Y-27170D01*
X56509Y-27170D02*
X60891Y-27170D01*
X53550Y-27170D02*
X53827Y-27170D01*
X63648Y-27090D02*
X63850Y-27090D01*
X56509Y-27090D02*
X60891Y-27090D01*
X53550Y-27090D02*
X53752Y-27090D01*
X63681Y-27010D02*
X63850Y-27010D01*
X56509Y-27010D02*
X60891Y-27010D01*
X53550Y-27010D02*
X53718Y-27010D01*
X63714Y-26930D02*
X63850Y-26930D01*
X56509Y-26930D02*
X60891Y-26930D01*
X53550Y-26930D02*
X53685Y-26930D01*
X63725Y-26850D02*
X63850Y-26850D01*
X56509Y-26850D02*
X60891Y-26850D01*
X53550Y-26850D02*
X53675Y-26850D01*
X63725Y-26770D02*
X63850Y-26770D01*
X56509Y-26770D02*
X60891Y-26770D01*
X53550Y-26770D02*
X53675Y-26770D01*
X63723Y-26690D02*
X63850Y-26690D01*
X56509Y-26690D02*
X60891Y-26690D01*
X53550Y-26690D02*
X53678Y-26690D01*
X63690Y-26610D02*
X63850Y-26610D01*
X56509Y-26610D02*
X60891Y-26610D01*
X53550Y-26610D02*
X53711Y-26610D01*
X63657Y-26530D02*
X63850Y-26530D01*
X60572Y-26530D02*
X60891Y-26530D01*
X56509Y-26530D02*
X57028Y-26530D01*
X53550Y-26530D02*
X53744Y-26530D01*
X63593Y-26450D02*
X63850Y-26450D01*
X60572Y-26450D02*
X60891Y-26450D01*
X56509Y-26450D02*
X57028Y-26450D01*
X53550Y-26450D02*
X53808Y-26450D01*
X63513Y-26370D02*
X63850Y-26370D01*
X60572Y-26370D02*
X60891Y-26370D01*
X56509Y-26370D02*
X57028Y-26370D01*
X53550Y-26370D02*
X53888Y-26370D01*
X63386Y-26290D02*
X63850Y-26290D01*
X60572Y-26290D02*
X60891Y-26290D01*
X56509Y-26290D02*
X57028Y-26290D01*
X53550Y-26290D02*
X54010Y-26290D01*
X63532Y-26210D02*
X63850Y-26210D01*
X60572Y-26210D02*
X60891Y-26210D01*
X56509Y-26210D02*
X57028Y-26210D01*
X53550Y-26210D02*
X53867Y-26210D01*
X63612Y-26130D02*
X63850Y-26130D01*
X60572Y-26130D02*
X60891Y-26130D01*
X56509Y-26130D02*
X57028Y-26130D01*
X53550Y-26130D02*
X53787Y-26130D01*
X63664Y-26050D02*
X63850Y-26050D01*
X60572Y-26050D02*
X60891Y-26050D01*
X56509Y-26050D02*
X57028Y-26050D01*
X53550Y-26050D02*
X53735Y-26050D01*
X63698Y-25970D02*
X63850Y-25970D01*
X60572Y-25970D02*
X60891Y-25970D01*
X56509Y-25970D02*
X57028Y-25970D01*
X53550Y-25970D02*
X53702Y-25970D01*
X63725Y-25890D02*
X63850Y-25890D01*
X60572Y-25890D02*
X60891Y-25890D01*
X56509Y-25890D02*
X57028Y-25890D01*
X53550Y-25890D02*
X53675Y-25890D01*
X63725Y-25810D02*
X63850Y-25810D01*
X60572Y-25810D02*
X60891Y-25810D01*
X56509Y-25810D02*
X57028Y-25810D01*
X53550Y-25810D02*
X53675Y-25810D01*
X63725Y-25730D02*
X63850Y-25730D01*
X60572Y-25730D02*
X60906Y-25730D01*
X56495Y-25730D02*
X57028Y-25730D01*
X53550Y-25730D02*
X53675Y-25730D01*
X63706Y-25650D02*
X63850Y-25650D01*
X60572Y-25650D02*
X60937Y-25650D01*
X56464Y-25650D02*
X57028Y-25650D01*
X53550Y-25650D02*
X53694Y-25650D01*
X63673Y-25570D02*
X63850Y-25570D01*
X60572Y-25570D02*
X60994Y-25570D01*
X56407Y-25570D02*
X57028Y-25570D01*
X53550Y-25570D02*
X53727Y-25570D01*
X63633Y-25490D02*
X63850Y-25490D01*
X60572Y-25490D02*
X61074Y-25490D01*
X56327Y-25490D02*
X57028Y-25490D01*
X53550Y-25490D02*
X53768Y-25490D01*
X63553Y-25410D02*
X63850Y-25410D01*
X60572Y-25410D02*
X61154Y-25410D01*
X56247Y-25410D02*
X57028Y-25410D01*
X53550Y-25410D02*
X53848Y-25410D01*
X63439Y-25330D02*
X63850Y-25330D01*
X60572Y-25330D02*
X61234Y-25330D01*
X56167Y-25330D02*
X57028Y-25330D01*
X53550Y-25330D02*
X53963Y-25330D01*
X63484Y-25250D02*
X63850Y-25250D01*
X60572Y-25250D02*
X61314Y-25250D01*
X56087Y-25250D02*
X57028Y-25250D01*
X53550Y-25250D02*
X53914Y-25250D01*
X63572Y-25170D02*
X63850Y-25170D01*
X56007Y-25170D02*
X61394Y-25170D01*
X53550Y-25170D02*
X53827Y-25170D01*
X63648Y-25090D02*
X63850Y-25090D01*
X55927Y-25090D02*
X61474Y-25090D01*
X53550Y-25090D02*
X53752Y-25090D01*
X63681Y-25010D02*
X63850Y-25010D01*
X55847Y-25010D02*
X61554Y-25010D01*
X53550Y-25010D02*
X53718Y-25010D01*
X63714Y-24930D02*
X63850Y-24930D01*
X55767Y-24930D02*
X61634Y-24930D01*
X53550Y-24930D02*
X53685Y-24930D01*
X63725Y-24850D02*
X63850Y-24850D01*
X55687Y-24850D02*
X61714Y-24850D01*
X53550Y-24850D02*
X53675Y-24850D01*
X63725Y-24770D02*
X63850Y-24770D01*
X55607Y-24770D02*
X61794Y-24770D01*
X53550Y-24770D02*
X53675Y-24770D01*
X63723Y-24690D02*
X63850Y-24690D01*
X55527Y-24690D02*
X61874Y-24690D01*
X53550Y-24690D02*
X53678Y-24690D01*
X63690Y-24610D02*
X63850Y-24610D01*
X55447Y-24610D02*
X61954Y-24610D01*
X53550Y-24610D02*
X53711Y-24610D01*
X63657Y-24530D02*
X63850Y-24530D01*
X55367Y-24530D02*
X62034Y-24530D01*
X53550Y-24530D02*
X53744Y-24530D01*
X63593Y-24450D02*
X63850Y-24450D01*
X55287Y-24450D02*
X62114Y-24450D01*
X53550Y-24450D02*
X53808Y-24450D01*
X63513Y-24370D02*
X63850Y-24370D01*
X55207Y-24370D02*
X62194Y-24370D01*
X53550Y-24370D02*
X53888Y-24370D01*
X63606Y-24290D02*
X63850Y-24290D01*
X55127Y-24290D02*
X62274Y-24290D01*
X53550Y-24290D02*
X53793Y-24290D01*
X63688Y-24210D02*
X63850Y-24210D01*
X55047Y-24210D02*
X62354Y-24210D01*
X53550Y-24210D02*
X53711Y-24210D01*
X63721Y-24130D02*
X63850Y-24130D01*
X54967Y-24130D02*
X62434Y-24130D01*
X53550Y-24130D02*
X53678Y-24130D01*
X63724Y-24050D02*
X63850Y-24050D01*
X54887Y-24050D02*
X62514Y-24050D01*
X53550Y-24050D02*
X53676Y-24050D01*
X63724Y-23970D02*
X63850Y-23970D01*
X54807Y-23970D02*
X62594Y-23970D01*
X53550Y-23970D02*
X53676Y-23970D01*
X63724Y-23890D02*
X63850Y-23890D01*
X54727Y-23890D02*
X62674Y-23890D01*
X53550Y-23890D02*
X53676Y-23890D01*
X63724Y-23810D02*
X63850Y-23810D01*
X54724Y-23810D02*
X62676Y-23810D01*
X53550Y-23810D02*
X53676Y-23810D01*
X63724Y-23730D02*
X63850Y-23730D01*
X54724Y-23730D02*
X62676Y-23730D01*
X53550Y-23730D02*
X53676Y-23730D01*
X63724Y-23650D02*
X63850Y-23650D01*
X54724Y-23650D02*
X62676Y-23650D01*
X53550Y-23650D02*
X53676Y-23650D01*
X63724Y-23570D02*
X63850Y-23570D01*
X54724Y-23570D02*
X62676Y-23570D01*
X53550Y-23570D02*
X53676Y-23570D01*
X63724Y-23490D02*
X63850Y-23490D01*
X54724Y-23490D02*
X62676Y-23490D01*
X53550Y-23490D02*
X53676Y-23490D01*
X63697Y-23410D02*
X63850Y-23410D01*
X54697Y-23410D02*
X62704Y-23410D01*
X53550Y-23410D02*
X53704Y-23410D01*
X63632Y-23330D02*
X63850Y-23330D01*
X54632Y-23330D02*
X62768Y-23330D01*
X53550Y-23330D02*
X53768Y-23330D01*
X53550Y-23250D02*
X63850Y-23250D01*
X63850Y-37350D02*
X63850Y-23250D01*
X63850Y-23250D02*
X53550Y-23250D01*
X53550Y-23250D02*
X53550Y-37350D01*
X53550Y-37350D02*
X54095Y-37350D01*
X54095Y-37350D02*
X54095Y-37325D01*
X54095Y-37325D02*
X53902Y-37245D01*
X53902Y-37245D02*
X53755Y-37097D01*
X53755Y-37097D02*
X53675Y-36904D01*
X53675Y-36904D02*
X53675Y-36695D01*
X53675Y-36695D02*
X53755Y-36502D01*
X53755Y-36502D02*
X53903Y-36355D01*
X53903Y-36355D02*
X54035Y-36300D01*
X54035Y-36300D02*
X53902Y-36245D01*
X53902Y-36245D02*
X53755Y-36097D01*
X53755Y-36097D02*
X53675Y-35904D01*
X53675Y-35904D02*
X53675Y-35695D01*
X53675Y-35695D02*
X53755Y-35502D01*
X53755Y-35502D02*
X53903Y-35355D01*
X53903Y-35355D02*
X54035Y-35300D01*
X54035Y-35300D02*
X53902Y-35245D01*
X53902Y-35245D02*
X53755Y-35097D01*
X53755Y-35097D02*
X53675Y-34904D01*
X53675Y-34904D02*
X53675Y-34695D01*
X53675Y-34695D02*
X53755Y-34502D01*
X53755Y-34502D02*
X53903Y-34355D01*
X53903Y-34355D02*
X54035Y-34300D01*
X54035Y-34300D02*
X53902Y-34245D01*
X53902Y-34245D02*
X53755Y-34097D01*
X53755Y-34097D02*
X53675Y-33904D01*
X53675Y-33904D02*
X53675Y-33695D01*
X53675Y-33695D02*
X53755Y-33502D01*
X53755Y-33502D02*
X53903Y-33355D01*
X53903Y-33355D02*
X54035Y-33300D01*
X54035Y-33300D02*
X53902Y-33245D01*
X53902Y-33245D02*
X53755Y-33097D01*
X53755Y-33097D02*
X53675Y-32904D01*
X53675Y-32904D02*
X53675Y-32695D01*
X53675Y-32695D02*
X53755Y-32502D01*
X53755Y-32502D02*
X53903Y-32355D01*
X53903Y-32355D02*
X54035Y-32300D01*
X54035Y-32300D02*
X53902Y-32245D01*
X53902Y-32245D02*
X53755Y-32097D01*
X53755Y-32097D02*
X53675Y-31904D01*
X53675Y-31904D02*
X53675Y-31695D01*
X53675Y-31695D02*
X53755Y-31502D01*
X53755Y-31502D02*
X53903Y-31355D01*
X53903Y-31355D02*
X54035Y-31300D01*
X54035Y-31300D02*
X53902Y-31245D01*
X53902Y-31245D02*
X53755Y-31097D01*
X53755Y-31097D02*
X53675Y-30904D01*
X53675Y-30904D02*
X53675Y-30695D01*
X53675Y-30695D02*
X53755Y-30502D01*
X53755Y-30502D02*
X53903Y-30355D01*
X53903Y-30355D02*
X54035Y-30300D01*
X54035Y-30300D02*
X53902Y-30245D01*
X53902Y-30245D02*
X53755Y-30097D01*
X53755Y-30097D02*
X53675Y-29904D01*
X53675Y-29904D02*
X53675Y-29695D01*
X53675Y-29695D02*
X53755Y-29502D01*
X53755Y-29502D02*
X53903Y-29355D01*
X53903Y-29355D02*
X54035Y-29300D01*
X54035Y-29300D02*
X53902Y-29245D01*
X53902Y-29245D02*
X53755Y-29097D01*
X53755Y-29097D02*
X53675Y-28904D01*
X53675Y-28904D02*
X53675Y-28695D01*
X53675Y-28695D02*
X53755Y-28502D01*
X53755Y-28502D02*
X53903Y-28355D01*
X53903Y-28355D02*
X54035Y-28300D01*
X54035Y-28300D02*
X53902Y-28245D01*
X53902Y-28245D02*
X53755Y-28097D01*
X53755Y-28097D02*
X53675Y-27904D01*
X53675Y-27904D02*
X53675Y-27695D01*
X53675Y-27695D02*
X53755Y-27502D01*
X53755Y-27502D02*
X53903Y-27355D01*
X53903Y-27355D02*
X54035Y-27300D01*
X54035Y-27300D02*
X53902Y-27245D01*
X53902Y-27245D02*
X53755Y-27097D01*
X53755Y-27097D02*
X53675Y-26904D01*
X53675Y-26904D02*
X53675Y-26695D01*
X53675Y-26695D02*
X53755Y-26502D01*
X53755Y-26502D02*
X53903Y-26355D01*
X53903Y-26355D02*
X54035Y-26300D01*
X54035Y-26300D02*
X53902Y-26245D01*
X53902Y-26245D02*
X53755Y-26097D01*
X53755Y-26097D02*
X53675Y-25904D01*
X53675Y-25904D02*
X53675Y-25695D01*
X53675Y-25695D02*
X53755Y-25502D01*
X53755Y-25502D02*
X53903Y-25355D01*
X53903Y-25355D02*
X54035Y-25300D01*
X54035Y-25300D02*
X53902Y-25245D01*
X53902Y-25245D02*
X53755Y-25097D01*
X53755Y-25097D02*
X53675Y-24904D01*
X53675Y-24904D02*
X53675Y-24695D01*
X53675Y-24695D02*
X53755Y-24502D01*
X53755Y-24502D02*
X53903Y-24355D01*
X53903Y-24355D02*
X53977Y-24324D01*
X53977Y-24324D02*
X53875Y-24324D01*
X53875Y-24324D02*
X53784Y-24286D01*
X53784Y-24286D02*
X53714Y-24216D01*
X53714Y-24216D02*
X53676Y-24124D01*
X53676Y-24124D02*
X53676Y-23475D01*
X53676Y-23475D02*
X53714Y-23384D01*
X53714Y-23384D02*
X53784Y-23314D01*
X53784Y-23314D02*
X53876Y-23276D01*
X53876Y-23276D02*
X54525Y-23276D01*
X54525Y-23276D02*
X54616Y-23314D01*
X54616Y-23314D02*
X54686Y-23384D01*
X54686Y-23384D02*
X54724Y-23476D01*
X54724Y-23476D02*
X54724Y-23887D01*
X54724Y-23887D02*
X56418Y-25581D01*
X56418Y-25581D02*
X56485Y-25682D01*
X56485Y-25682D02*
X56509Y-25800D01*
X56509Y-25800D02*
X56509Y-28341D01*
X56509Y-28341D02*
X56952Y-28341D01*
X56952Y-28341D02*
X57001Y-28321D01*
X57001Y-28321D02*
X57028Y-28321D01*
X57028Y-28321D02*
X57028Y-26560D01*
X57028Y-26560D02*
X57028Y-25240D01*
X57028Y-25240D02*
X60572Y-25240D01*
X60572Y-25240D02*
X60572Y-26560D01*
X60572Y-26560D02*
X57028Y-26560D01*
X57028Y-26560D02*
X57028Y-28321D01*
X57028Y-28321D02*
X57600Y-28321D01*
X57600Y-28321D02*
X57691Y-28359D01*
X57691Y-28359D02*
X57761Y-28429D01*
X57761Y-28429D02*
X57799Y-28521D01*
X57799Y-28521D02*
X57799Y-28771D01*
X57799Y-28771D02*
X57799Y-28780D01*
X57799Y-28780D02*
X57799Y-29030D01*
X57799Y-29030D02*
X57798Y-29030D01*
X57798Y-29030D02*
X57799Y-29031D01*
X57799Y-29031D02*
X57799Y-29290D01*
X57799Y-29290D02*
X57798Y-29290D01*
X57798Y-29290D02*
X57799Y-29291D01*
X57799Y-29291D02*
X57799Y-29541D01*
X57799Y-29541D02*
X57799Y-29550D01*
X57799Y-29550D02*
X57799Y-29800D01*
X57799Y-29800D02*
X57798Y-29800D01*
X57798Y-29800D02*
X57799Y-29801D01*
X57799Y-29801D02*
X57799Y-30060D01*
X57799Y-30060D02*
X57798Y-30060D01*
X57798Y-30060D02*
X57799Y-30061D01*
X57799Y-30061D02*
X57799Y-30311D01*
X57799Y-30311D02*
X57799Y-30320D01*
X57799Y-30320D02*
X57799Y-30570D01*
X57799Y-30570D02*
X57798Y-30570D01*
X57798Y-30570D02*
X57799Y-30571D01*
X57799Y-30571D02*
X57799Y-30821D01*
X57799Y-30821D02*
X57799Y-30830D01*
X57799Y-30830D02*
X57799Y-31080D01*
X57799Y-31080D02*
X57798Y-31080D01*
X57798Y-31080D02*
X57799Y-31081D01*
X57799Y-31081D02*
X57799Y-31340D01*
X57799Y-31340D02*
X57798Y-31340D01*
X57798Y-31340D02*
X57799Y-31341D01*
X57799Y-31341D02*
X57799Y-31591D01*
X57799Y-31591D02*
X57799Y-31600D01*
X57799Y-31600D02*
X57799Y-31850D01*
X57799Y-31850D02*
X57798Y-31850D01*
X57798Y-31850D02*
X57799Y-31851D01*
X57799Y-31851D02*
X57799Y-32110D01*
X57799Y-32110D02*
X57761Y-32201D01*
X57761Y-32201D02*
X57691Y-32271D01*
X57691Y-32271D02*
X57599Y-32309D01*
X57599Y-32309D02*
X57000Y-32309D01*
X57000Y-32309D02*
X56952Y-32289D01*
X56952Y-32289D02*
X56509Y-32289D01*
X56509Y-32289D02*
X56509Y-34800D01*
X56509Y-34800D02*
X56485Y-34918D01*
X56485Y-34918D02*
X56418Y-35019D01*
X56418Y-35019D02*
X54725Y-36711D01*
X54725Y-36711D02*
X54725Y-36905D01*
X54725Y-36905D02*
X54645Y-37098D01*
X54645Y-37098D02*
X54497Y-37245D01*
X54497Y-37245D02*
X54304Y-37325D01*
X54304Y-37325D02*
X54095Y-37325D01*
X54095Y-37325D02*
X54095Y-37350D01*
X54095Y-37350D02*
X63095Y-37350D01*
X63095Y-37350D02*
X63095Y-37325D01*
X63095Y-37325D02*
X62902Y-37245D01*
X62902Y-37245D02*
X62755Y-37097D01*
X62755Y-37097D02*
X62675Y-36904D01*
X62675Y-36904D02*
X62675Y-36711D01*
X62675Y-36711D02*
X60982Y-35018D01*
X60982Y-35018D02*
X60915Y-34918D01*
X60915Y-34918D02*
X60891Y-34800D01*
X60891Y-34800D02*
X60891Y-32289D01*
X60891Y-32289D02*
X60447Y-32289D01*
X60447Y-32289D02*
X60399Y-32309D01*
X60399Y-32309D02*
X59800Y-32309D01*
X59800Y-32309D02*
X59709Y-32271D01*
X59709Y-32271D02*
X59639Y-32201D01*
X59639Y-32201D02*
X59601Y-32109D01*
X59601Y-32109D02*
X59601Y-31850D01*
X59601Y-31850D02*
X59601Y-31849D01*
X59601Y-31849D02*
X59601Y-31849D01*
X59601Y-31849D02*
X59601Y-31609D01*
X59601Y-31609D02*
X59601Y-31590D01*
X59601Y-31590D02*
X59601Y-31350D01*
X59601Y-31350D02*
X59603Y-31344D01*
X59603Y-31344D02*
X59601Y-31339D01*
X59601Y-31339D02*
X59601Y-31080D01*
X59601Y-31080D02*
X59601Y-31079D01*
X59601Y-31079D02*
X59601Y-31079D01*
X59601Y-31079D02*
X59601Y-30829D01*
X59601Y-30829D02*
X59601Y-30820D01*
X59601Y-30820D02*
X59601Y-30570D01*
X59601Y-30570D02*
X59601Y-30569D01*
X59601Y-30569D02*
X59601Y-30569D01*
X59601Y-30569D02*
X59601Y-30319D01*
X59601Y-30319D02*
X59601Y-30310D01*
X59601Y-30310D02*
X59601Y-30060D01*
X59601Y-30060D02*
X59601Y-30059D01*
X59601Y-30059D02*
X59601Y-30059D01*
X59601Y-30059D02*
X59601Y-29800D01*
X59601Y-29800D02*
X59601Y-29799D01*
X59601Y-29799D02*
X59601Y-29799D01*
X59601Y-29799D02*
X59601Y-29549D01*
X59601Y-29549D02*
X59601Y-29540D01*
X59601Y-29540D02*
X59601Y-29290D01*
X59601Y-29290D02*
X59601Y-29289D01*
X59601Y-29289D02*
X59601Y-29289D01*
X59601Y-29289D02*
X59601Y-29030D01*
X59601Y-29030D02*
X59601Y-29029D01*
X59601Y-29029D02*
X59601Y-29029D01*
X59601Y-29029D02*
X59601Y-28779D01*
X59601Y-28779D02*
X59601Y-28770D01*
X59601Y-28770D02*
X59601Y-28520D01*
X59601Y-28520D02*
X59639Y-28429D01*
X59639Y-28429D02*
X59709Y-28359D01*
X59709Y-28359D02*
X59801Y-28321D01*
X59801Y-28321D02*
X60400Y-28321D01*
X60400Y-28321D02*
X60447Y-28341D01*
X60447Y-28341D02*
X60891Y-28341D01*
X60891Y-28341D02*
X60891Y-25800D01*
X60891Y-25800D02*
X60915Y-25682D01*
X60915Y-25682D02*
X60982Y-25582D01*
X60982Y-25582D02*
X62676Y-23887D01*
X62676Y-23887D02*
X62676Y-23475D01*
X62676Y-23475D02*
X62714Y-23384D01*
X62714Y-23384D02*
X62784Y-23314D01*
X62784Y-23314D02*
X62876Y-23276D01*
X62876Y-23276D02*
X63525Y-23276D01*
X63525Y-23276D02*
X63616Y-23314D01*
X63616Y-23314D02*
X63686Y-23384D01*
X63686Y-23384D02*
X63724Y-23476D01*
X63724Y-23476D02*
X63724Y-24125D01*
X63724Y-24125D02*
X63686Y-24216D01*
X63686Y-24216D02*
X63616Y-24286D01*
X63616Y-24286D02*
X63524Y-24324D01*
X63524Y-24324D02*
X63423Y-24324D01*
X63423Y-24324D02*
X63498Y-24355D01*
X63498Y-24355D02*
X63645Y-24503D01*
X63645Y-24503D02*
X63725Y-24696D01*
X63725Y-24696D02*
X63725Y-24905D01*
X63725Y-24905D02*
X63645Y-25098D01*
X63645Y-25098D02*
X63497Y-25245D01*
X63497Y-25245D02*
X63364Y-25299D01*
X63364Y-25299D02*
X63498Y-25355D01*
X63498Y-25355D02*
X63645Y-25503D01*
X63645Y-25503D02*
X63725Y-25696D01*
X63725Y-25696D02*
X63725Y-25905D01*
X63725Y-25905D02*
X63645Y-26098D01*
X63645Y-26098D02*
X63497Y-26245D01*
X63497Y-26245D02*
X63364Y-26299D01*
X63364Y-26299D02*
X63498Y-26355D01*
X63498Y-26355D02*
X63645Y-26503D01*
X63645Y-26503D02*
X63725Y-26696D01*
X63725Y-26696D02*
X63725Y-26905D01*
X63725Y-26905D02*
X63645Y-27098D01*
X63645Y-27098D02*
X63497Y-27245D01*
X63497Y-27245D02*
X63364Y-27299D01*
X63364Y-27299D02*
X63498Y-27355D01*
X63498Y-27355D02*
X63645Y-27503D01*
X63645Y-27503D02*
X63725Y-27696D01*
X63725Y-27696D02*
X63725Y-27905D01*
X63725Y-27905D02*
X63645Y-28098D01*
X63645Y-28098D02*
X63497Y-28245D01*
X63497Y-28245D02*
X63364Y-28299D01*
X63364Y-28299D02*
X63498Y-28355D01*
X63498Y-28355D02*
X63645Y-28503D01*
X63645Y-28503D02*
X63725Y-28696D01*
X63725Y-28696D02*
X63725Y-28905D01*
X63725Y-28905D02*
X63645Y-29098D01*
X63645Y-29098D02*
X63497Y-29245D01*
X63497Y-29245D02*
X63364Y-29299D01*
X63364Y-29299D02*
X63498Y-29355D01*
X63498Y-29355D02*
X63645Y-29503D01*
X63645Y-29503D02*
X63725Y-29696D01*
X63725Y-29696D02*
X63725Y-29905D01*
X63725Y-29905D02*
X63645Y-30098D01*
X63645Y-30098D02*
X63497Y-30245D01*
X63497Y-30245D02*
X63364Y-30299D01*
X63364Y-30299D02*
X63498Y-30355D01*
X63498Y-30355D02*
X63645Y-30503D01*
X63645Y-30503D02*
X63725Y-30696D01*
X63725Y-30696D02*
X63725Y-30905D01*
X63725Y-30905D02*
X63645Y-31098D01*
X63645Y-31098D02*
X63497Y-31245D01*
X63497Y-31245D02*
X63364Y-31299D01*
X63364Y-31299D02*
X63498Y-31355D01*
X63498Y-31355D02*
X63645Y-31503D01*
X63645Y-31503D02*
X63725Y-31696D01*
X63725Y-31696D02*
X63725Y-31905D01*
X63725Y-31905D02*
X63645Y-32098D01*
X63645Y-32098D02*
X63497Y-32245D01*
X63497Y-32245D02*
X63364Y-32299D01*
X63364Y-32299D02*
X63498Y-32355D01*
X63498Y-32355D02*
X63645Y-32503D01*
X63645Y-32503D02*
X63725Y-32696D01*
X63725Y-32696D02*
X63725Y-32905D01*
X63725Y-32905D02*
X63645Y-33098D01*
X63645Y-33098D02*
X63497Y-33245D01*
X63497Y-33245D02*
X63364Y-33299D01*
X63364Y-33299D02*
X63498Y-33355D01*
X63498Y-33355D02*
X63645Y-33503D01*
X63645Y-33503D02*
X63725Y-33696D01*
X63725Y-33696D02*
X63725Y-33905D01*
X63725Y-33905D02*
X63645Y-34098D01*
X63645Y-34098D02*
X63497Y-34245D01*
X63497Y-34245D02*
X63364Y-34299D01*
X63364Y-34299D02*
X63498Y-34355D01*
X63498Y-34355D02*
X63645Y-34503D01*
X63645Y-34503D02*
X63725Y-34696D01*
X63725Y-34696D02*
X63725Y-34905D01*
X63725Y-34905D02*
X63645Y-35098D01*
X63645Y-35098D02*
X63497Y-35245D01*
X63497Y-35245D02*
X63364Y-35299D01*
X63364Y-35299D02*
X63498Y-35355D01*
X63498Y-35355D02*
X63645Y-35503D01*
X63645Y-35503D02*
X63725Y-35696D01*
X63725Y-35696D02*
X63725Y-35905D01*
X63725Y-35905D02*
X63645Y-36098D01*
X63645Y-36098D02*
X63497Y-36245D01*
X63497Y-36245D02*
X63364Y-36299D01*
X63364Y-36299D02*
X63498Y-36355D01*
X63498Y-36355D02*
X63645Y-36503D01*
X63645Y-36503D02*
X63725Y-36696D01*
X63725Y-36696D02*
X63725Y-36905D01*
X63725Y-36905D02*
X63645Y-37098D01*
X63645Y-37098D02*
X63497Y-37245D01*
X63497Y-37245D02*
X63304Y-37325D01*
X63304Y-37325D02*
X63095Y-37325D01*
X63095Y-37325D02*
X63095Y-37350D01*
X63095Y-37350D02*
X63850Y-37350D01*
X54725Y-35838D02*
X55891Y-34672D01*
X55891Y-34672D02*
X55891Y-34545D01*
X55891Y-34545D02*
X54725Y-35711D01*
X54725Y-35711D02*
X54725Y-35838D01*
X62675Y-35838D02*
X62675Y-35711D01*
X62675Y-35711D02*
X61509Y-34545D01*
X61509Y-34545D02*
X61509Y-34672D01*
X61509Y-34672D02*
X62675Y-35838D01*
X54725Y-34838D02*
X55591Y-33972D01*
X55591Y-33972D02*
X55591Y-33845D01*
X55591Y-33845D02*
X54725Y-34711D01*
X54725Y-34711D02*
X54725Y-34838D01*
X62675Y-34838D02*
X62675Y-34711D01*
X62675Y-34711D02*
X61809Y-33845D01*
X61809Y-33845D02*
X61809Y-33972D01*
X61809Y-33972D02*
X62675Y-34838D01*
X62675Y-33838D02*
X62675Y-33711D01*
X62675Y-33711D02*
X62109Y-33145D01*
X62109Y-33145D02*
X62109Y-33272D01*
X62109Y-33272D02*
X62675Y-33838D01*
X54725Y-33838D02*
X55291Y-33272D01*
X55291Y-33272D02*
X55291Y-33145D01*
X55291Y-33145D02*
X54725Y-33711D01*
X54725Y-33711D02*
X54725Y-33838D01*
X62675Y-32838D02*
X62675Y-32711D01*
X62675Y-32711D02*
X62409Y-32445D01*
X62409Y-32445D02*
X62409Y-32572D01*
X62409Y-32572D02*
X62675Y-32838D01*
X54725Y-32838D02*
X54991Y-32572D01*
X54991Y-32572D02*
X54991Y-32445D01*
X54991Y-32445D02*
X54725Y-32711D01*
X54725Y-32711D02*
X54725Y-32838D01*
X62409Y-28154D02*
X62675Y-27888D01*
X62675Y-27888D02*
X62675Y-27761D01*
X62675Y-27761D02*
X62409Y-28027D01*
X62409Y-28027D02*
X62409Y-28154D01*
X54991Y-28154D02*
X54991Y-28027D01*
X54991Y-28027D02*
X54725Y-27761D01*
X54725Y-27761D02*
X54725Y-27888D01*
X54725Y-27888D02*
X54991Y-28154D01*
X62109Y-27454D02*
X62675Y-26888D01*
X62675Y-26888D02*
X62675Y-26761D01*
X62675Y-26761D02*
X62109Y-27327D01*
X62109Y-27327D02*
X62109Y-27454D01*
X55291Y-27454D02*
X55291Y-27327D01*
X55291Y-27327D02*
X54725Y-26761D01*
X54725Y-26761D02*
X54725Y-26888D01*
X54725Y-26888D02*
X55291Y-27454D01*
X61809Y-26754D02*
X62675Y-25888D01*
X62675Y-25888D02*
X62675Y-25761D01*
X62675Y-25761D02*
X61809Y-26627D01*
X61809Y-26627D02*
X61809Y-26754D01*
X55591Y-26754D02*
X55591Y-26627D01*
X55591Y-26627D02*
X54725Y-25761D01*
X54725Y-25761D02*
X54725Y-25888D01*
X54725Y-25888D02*
X55591Y-26754D01*
X61509Y-26054D02*
X62675Y-24888D01*
X62675Y-24888D02*
X62675Y-24761D01*
X62675Y-24761D02*
X61509Y-25927D01*
X61509Y-25927D02*
X61509Y-26054D01*
X55891Y-26054D02*
X55891Y-25927D01*
X55891Y-25927D02*
X54725Y-24761D01*
X54725Y-24761D02*
X54725Y-24888D01*
X54725Y-24888D02*
X55891Y-26054D01*
M02*
