M48
;DRILL file {PCBnew (20090216-final)} date Wed 03 Nov 2010 02:55:41 PM ART
;FORMAT={-.-/ absolute / inch / decimal}
R,T
VER,1
FMAT,2
INCH,TZ
TCST,OFF
ICI,OFF
ATC,ON
T1C0.032
T2C0.040
%
M47
G05
M72
T1
X5.060Y3.170
X5.160Y4.270
X6.160Y3.070
X6.260Y4.170
T2
X5.060Y3.270
X5.060Y3.370
X5.060Y3.470
X5.060Y3.570
X5.060Y3.670
X5.060Y3.770
X5.060Y3.870
X5.060Y3.970
X5.060Y4.070
X5.060Y4.170
X5.160Y3.070
X5.260Y3.070
X5.260Y4.270
X5.360Y3.070
X5.360Y4.270
X5.460Y3.070
X5.460Y4.270
X5.560Y3.070
X5.560Y4.270
X5.660Y3.070
X5.660Y4.270
X5.760Y3.070
X5.760Y4.270
X5.860Y3.070
X5.860Y4.270
X5.960Y3.070
X5.960Y4.270
X6.060Y3.070
X6.060Y4.270
X6.160Y4.270
X6.260Y3.170
X6.260Y3.270
X6.260Y3.370
X6.260Y3.470
X6.260Y3.570
X6.260Y3.670
X6.260Y3.770
X6.260Y3.870
X6.260Y3.970
X6.260Y4.070
T0
M30
