M48
;DRILL file {PCBnew (2010-12-06 BZR 2371)-stable} date Thu 16 Jun 2011 17:41:58 ART
;FORMAT={-:-/ absolute / inch / decimal}
FMAT,2
INCH,TZ
T1C0.026
T2C0.040
%
G90
G05
M72
T1
X1.540Y-1.005
X1.655Y-1.715
X1.660Y-1.865
X1.665Y-1.375
X1.735Y-0.930
X1.735Y-1.545
X1.750Y-1.943
X1.800Y-0.965
X1.800Y-1.420
X1.865Y-0.995
X1.865Y-1.380
X1.910Y-1.975
X2.190Y-1.060
X2.375Y-1.175
X2.375Y-1.770
X2.375Y-1.860
X2.380Y-1.060
T2
X1.650Y-0.795
X1.650Y-2.075
X1.750Y-0.795
X1.750Y-2.075
X1.850Y-0.795
X1.850Y-2.075
X1.950Y-0.795
X1.950Y-2.075
X2.050Y-0.795
X2.050Y-2.075
X2.150Y-0.795
X2.150Y-2.075
X2.250Y-0.795
X2.250Y-2.075
X2.350Y-0.795
X2.350Y-2.075
X2.450Y-0.795
X2.450Y-2.075
T0
M30
